<svg xmlns="http://www.w3.org/2000/svg" width="1920" height="1080" viewBox="0 0 1920 1080">
  <defs>
    <linearGradient id="g" x1="0" y1="0" x2="1" y2="1">
      <stop offset="0" stop-color="#0a0b10"/>
      <stop offset="1" stop-color="#1a2140"/>
    </linearGradient>
  </defs>
  <rect x="0" y="0" width="1920" height="1080" fill="url(#g)"/>
  <rect x="160" y="120" width="300" height="840" rx="16" fill="#141826"/>
  <rect x="500" y="120" width="1260" height="180" rx="16" fill="#141826"/>
  <rect x="500" y="330" width="1260" height="630" rx="16" fill="#141826"/>
  <circle cx="200" cy="180" r="28" fill="#4A6BFF"/>
  <circle cx="260" cy="180" r="28" fill="#9f5cff"/>
  <circle cx="320" cy="180" r="28" fill="#00d4ff"/>
  <text x="520" y="200" fill="#ffffff" font-family="Segoe UI, Arial, sans-serif" font-size="48" font-weight="700">Dopeur Chaine YouTube</text>
  <text x="520" y="260" fill="#9fb0ff" font-family="Segoe UI, Arial, sans-serif" font-size="28">Dashboard Desktop (maquette)</text>
  <rect x="540" y="370" width="580" height="80" rx="12" fill="#1b2130"/>
  <rect x="540" y="470" width="580" height="80" rx="12" fill="#1b2130"/>
  <rect x="540" y="570" width="580" height="80" rx="12" fill="#1b2130"/>
  <rect x="1140" y="370" width="580" height="220" rx="12" fill="#1b2130"/>
  <rect x="1140" y="610" width="580" height="220" rx="12" fill="#1b2130"/>
</svg>
